<svg xmlns="http://www.w3.org/2000/svg" version="1.1" xmlns:xlink="http://www.w3.org/1999/xlink" xmlns:svgjs="http://svgjs.com/svgjs" width="512" height="512" x="0" y="0" viewBox="0 0 512 512" style="enable-background:new 0 0 512 512" xml:space="preserve" class=""><g><g id="_x32_4_Lightning_bolt"><path d="m379.289 155.078-82.119 119.115h61.681c10.521 0 15.853 12.663 8.5 20.19l-209.016 213.942c-9.357 9.577-24.946-1.228-19.261-13.351l74.021-157.839h-48.99c-9.027 0-14.758-9.667-10.426-17.587l54.62-99.87h-71.096c-8.92 0-14.661-9.462-10.54-17.374l102.031-195.909c2.047-3.93 6.109-6.395 10.54-6.395h135.559c9.465 0 15.132 10.525 9.921 18.426l-77.822 118.022h62.612c9.577.001 15.22 10.746 9.785 18.63z" fill="#000000" data-original="#000000" class=""></path></g></g></svg>