<svg xmlns="http://www.w3.org/2000/svg" version="1.1" xmlns:xlink="http://www.w3.org/1999/xlink" xmlns:svgjs="http://svgjs.com/svgjs" width="512" height="512" x="0" y="0" viewBox="0 0 497.002 497.002" style="enable-background:new 0 0 512 512" xml:space="preserve" class=""><g><g><circle cx="249.001" cy="249.001" fill="#f2d1a5" r="209" data-original="#f2d1a5" class=""></circle><path d="m434.761 344.871c-34.75 67.2-104.89 113.13-185.76 113.13-115.43 0-209-93.57-209-209l22.987-13.556c10.274 105.835 99.481 188.556 208.013 188.556 66.35 0 125.48-30.92 163.76-79.13z" fill="#f2bb88" data-original="#f2bb88" class=""></path><path d="m248.501 384.001c-78.575 0-133.638-56.426-133.638-135 0-31.896 2.172-61.378 19.943-85.15 26.008-34.79 67.516-57.35 114.195-57.35 78.574 0 142.5 63.926 142.5 142.5 0 43.144-19.273 81.872-49.662 108.025-24.956 21.478-57.908 26.975-93.338 26.975z" fill="#f9af38" data-original="#f9af38" class=""></path><path d="m357.861 340.861c-26.17 30.95-65.26 50.64-108.86 50.64-78.57 0-142.5-63.93-142.5-142.5 0-43.6 19.69-82.69 50.64-108.86-20.98 24.82-33.64 56.89-33.64 91.86 0 78.57 63.93 142.5 142.5 142.5 34.97 0 67.04-12.66 91.86-33.64z" fill="#f48931" data-original="#f48931" class=""></path><path d="m491.891 275.111h-19.803c-.506 0-.929.379-.987.882-5.762 49.982-28.043 96.25-64.18 132.358-42.37 42.34-98.7 65.65-158.61 65.65-59.92 0-112.79-24.756-155.15-67.096-20.975-20.949-34.417-43.172-45.54-69.702-3.022-7.208-6.3-16.077.363-19.647.689-.369 1.417-.689 2.181-.954 7.452-2.582 15.591 1.098 18.648 8.368 29.461 70.041 98.824 119.34 179.498 119.34 98.346 0 186.737-70.543 199.658-165.321.082-.602-7.24-3.879-7.848-3.879h-19.231c-4.3 0-6.67-4.9-3.97-8.18l26.01-31.56 9.49-11.51c2.04-2.48 5.89-2.48 7.93 0l12.51 15.18 22.99 27.89c2.711 3.281.331 8.181-3.959 8.181z" fill="#f9af38" data-original="#f9af38" class=""></path><path d="m455.611 279.741c-14.42 93.08-95.16 164.57-192.3 164.57-2.52 0-5.03-.05-7.53-.14.18-.01.36-.01.54-.02.57-.02 1.13-.05 1.69-.08 5.23-.26 10.4-.72 15.49-1.38.7-.1 1.39-.19 2.08-.29 85.82-12.07 153.84-80.29 165.54-166.15.08-.6-.39-1.14-1-1.14h11.53c2.46 0 4.34 2.2 3.96 4.63z" fill="#f9af38" data-original="#f9af38" class=""></path><g fill="#f48931"><path d="m431.921 266.931c-2.7 3.28-.33 8.18 3.97 8.18h-15c-4.3 0-6.67-4.9-3.97-8.18l26.01-31.56 9.49-11.51c2.04-2.48 5.89-2.48 7.93 0l3.53 4.29-5.95 7.22z" fill="#f48931" data-original="#f48931" class=""></path><path d="m255.811 473.881c-2.49.08-4.99.12-7.5.12-59.92 0-116.25-23.31-158.61-65.65-20.97-20.95-37.28-45.32-48.4-71.85-3.03-7.2.02-15.37 6.68-18.95l8.32 18.95c11.12 26.53 27.43 50.9 48.4 71.85 40.59 40.57 94 63.67 151.11 65.53z" fill="#f48931" data-original="#f48931" class=""></path><path d="m455.611 279.741c-14.42 93.08-95.16 164.57-192.3 164.57-2.52 0-5.03-.05-7.53-.14 6.663-.263 13.282-.833 19.8-1.77 85.82-12.07 153.84-80.29 165.54-166.15.08-.6-.39-1.14-1-1.14h11.53c2.46 0 4.34 2.2 3.96 4.63z" fill="#f48931" data-original="#f48931" class=""></path></g><path d="m446.345 179.223-.002.001c-7.419 2.573-12.306-6.886-15.395-14.105-25.823-60.351-84.573-99.277-151.333-109.974-10.073-1.614-20.402-2.453-30.923-2.453-98.346 0-179.887 73.282-192.808 168.06-.082.602.39 1.141.997 1.141h19.231c4.3 0 6.67 4.9 3.97 8.18l-32.464 39.387-3.525 1.873c-2.04 2.48-5.89 2.48-7.93 0l-30.194-41.108c-2.71-3.28-4.29-6.766 0-6.766l10.979-1.567h7.966c.506 0 8.317-4.313 8.375-4.816 5.762-49.982 24.245-89.382 60.383-125.489 42.37-42.34 95.11-68.585 155.02-68.585 59.92 0 116.25 23.31 158.61 65.65 20.647 20.622 36.767 44.56 47.877 70.609 3.393 7.957-.66 17.127-8.834 19.962z" fill="#f9af38" data-original="#f9af38" class=""></path><path d="m255.691 23.111c-57.29 1.74-110.9 24.85-151.61 65.54-35.71 35.68-57.89 81.29-63.97 130.6-.19 1.5-1.45 2.64-2.97 2.64h-12.23c.51 0 .93-.38.99-.88 5.76-49.98 28.04-96.25 64.18-132.36 42.37-42.34 98.7-65.65 158.61-65.65 1.32 0 2.64.01 3.96.04 1.02.01 2.03.04 3.04.07z" fill="#f48931" data-original="#f48931" class=""></path><path d="m448.471 178.291c-.67.36-1.38.67-2.13.93-7.42 2.58-15.53-1.06-18.62-8.28-28.85-67.45-94.81-115.4-172.08-118.12 2.34-.09 4.69-.13 7.05-.13 80.25 0 149.32 48.79 179.03 118.25 1.4 3.27 3.82 5.8 6.75 7.35z" fill="#f48931" data-original="#f48931" class=""></path><path d="m47.621 269.461-3.04 3.68c-2.04 2.48-5.89 2.48-7.93 0l-35.5-43.07c-2.71-3.28-.33-8.18 3.96-8.18h14c-4.29 0-6.67 4.9-3.96 8.18z" fill="#f48931" data-original="#f48931" class=""></path><path d="m268.761 233.971c-11.379-4.022-23.62-8.079-33.673-14.924-1.675-1.14-3.309-2.446-4.316-4.205-3.36-5.87-.086-14.51 4.552-18.691 4.451-4.012 10.3-4.823 16.063-4.571 5.637.247 11.408 1.874 15.839 5.48 6.305 5.131 15.732 4.522 21.047-1.629 5.514-6.382 4.685-16.015-1.778-21.367-5.591-4.629-13.412-8.797-22.698-10.964-.452-.105-.775-.503-.775-.967v-12.21c0-8.082-6.216-15.034-14.29-15.406-8.614-.397-15.71 6.468-15.71 14.984v13.713c0 .444-.295.828-.721.953-16.343 4.779-28.594 18.686-31.881 36.146-3.013 15.989 2.217 31.491 13.65 40.458 9.374 7.352 22.322 13.576 44.694 21.485 14.66 5.182 14.343 17.038 13.526 21.896-1.661 9.879-9.971 20.555-24.292 20.649-14.143.092-18.544-.604-29.395-7.702-7.102-4.648-16.689-2.491-21.09 4.862-4.19 6.999-1.73 16.095 5.113 20.534 11.149 7.232 19.561 10.35 29.516 11.583.501.062.881.483.881.987v13.436c0 8.515 7.097 15.38 15.71 14.984 8.074-.372 14.29-7.324 14.29-15.406v-14.571c0-.443.294-.827.719-.952 7.808-2.289 14.931-6.302 21.052-11.926 8.988-8.259 15.055-19.447 17.082-31.505 4.122-24.53-9.184-46.695-33.115-55.154z" fill="#f5fcff" data-original="#f5fcff" class=""></path></g></g></svg>